<svg xmlns="http://www.w3.org/2000/svg" xmlns:xlink="http://www.w3.org/1999/xlink" width="1200" height="840" viewBox="0 0 900 630"><g id="graph0" class="graph" transform="scale(1 1) rotate(0) translate(4 626)"><title>G</title><polygon fill="#fff" stroke="transparent" points="-4 4 -4 -626 896 -626 896 4 -4 4"/><g id="clust1" class="cluster"><title>ROOT</title><polygon fill="none" stroke="#1e90ff" points="8 -537 8 -614 102 -614 102 -537 8 -537"/><text x="55" y="-598.8" font-family="sans-serif" font-size="14" text-anchor="middle">ROOT</text></g><g id="clust2" class="cluster"><title>4000b000.audio-controller</title><polygon fill="none" stroke="#1e90ff" points="120 -378 120 -455 312 -455 312 -378 120 -378"/><text x="216" y="-439.8" font-family="sans-serif" font-size="14" text-anchor="middle">4000b000.audio-controller</text></g><g id="clust5" class="cluster"><title>cs42l51.0-004a</title><polygon fill="none" stroke="#1e90ff" points="330 -8 330 -614 884 -614 884 -8 330 -8"/><text x="607" y="-598.8" font-family="sans-serif" font-size="14" text-anchor="middle">cs42l51.0-004a</text></g><g id="clust9" class="cluster"><title>hdmi-audio-codec.1.auto</title><polygon fill="none" stroke="#1e90ff" points="110 -463 110 -614 314 -614 314 -463 110 -463"/><text x="212" y="-598.8" font-family="sans-serif" font-size="14" text-anchor="middle">hdmi-audio-codec.1.auto</text></g><g id="node1" class="node"><title>ROOT_Amplifier</title><polygon fill="#f2f2f2" stroke="#4d4d4d" points="93.5 -583 16.5 -583 16.5 -545 93.5 -545 93.5 -583"/><text x="55" y="-567.8" font-family="sans-serif" font-size="14" text-anchor="middle">Amplifier</text><text x="55" y="-552.8" font-family="sans-serif" font-size="14" text-anchor="middle">[out_drv]</text></g><g id="node2" class="node"><title>4000b000.audio-controller_capture</title><polygon fill="#f2f2f2" stroke="#4d4d4d" points="202 -424 128 -424 128 -386 202 -386 202 -424"/><text x="165" y="-408.8" font-family="sans-serif" font-size="14" text-anchor="middle">capture</text><text x="165" y="-393.8" font-family="sans-serif" font-size="14" text-anchor="middle">[dai_out]</text></g><g id="node3" class="node"><title>4000b000.audio-controller_playback</title><polygon fill="#f2f2f2" stroke="#4d4d4d" points="304 -424 230 -424 230 -386 304 -386 304 -424"/><text x="267" y="-408.8" font-family="sans-serif" font-size="14" text-anchor="middle">playback</text><text x="267" y="-393.8" font-family="sans-serif" font-size="14" text-anchor="middle">[dai_in]</text></g><g id="node28" class="node"><title>hdmi-audio-codec.1.auto_I2S Playback</title><polygon fill="#f2f2f2" stroke="#4d4d4d" points="306 -583 208 -583 208 -545 306 -545 306 -583"/><text x="257" y="-567.8" font-family="sans-serif" font-size="14" text-anchor="middle">I2S Playback</text><text x="257" y="-552.8" font-family="sans-serif" font-size="14" text-anchor="middle">[dai_in]</text></g><g id="edge21" class="edge"><title>4000b000.audio-controller_playback-&gt;hdmi-audio-codec.1.auto_I2S Playback</title><path fill="none" stroke="#000" d="M276.84,-424.14C282.19,-435.06 288.26,-449.42 291,-463 295.05,-483.04 296.67,-489.36 291,-509 288.25,-518.54 283.26,-528.01 277.93,-536.3"/><polygon fill="#000" stroke="#000" points="274.89 -534.55 272.11 -544.78 280.66 -538.51 274.89 -534.55"/></g><g id="node4" class="node"><title>hdmi-audio-codec.1.auto_Capture</title><polygon fill="#f2f2f2" stroke="#4d4d4d" points="192 -509 118 -509 118 -471 192 -471 192 -509"/><text x="155" y="-493.8" font-family="sans-serif" font-size="14" text-anchor="middle">Capture</text><text x="155" y="-478.8" font-family="sans-serif" font-size="14" text-anchor="middle">[dai_out]</text></g><g id="edge1" class="edge"><title>hdmi-audio-codec.1.auto_Capture-&gt;4000b000.audio-controller_capture</title><path fill="none" stroke="#000" d="M157.17,-470.99C158.46,-460.3 160.12,-446.5 161.58,-434.37"/><polygon fill="#000" stroke="#000" points="165.08 -434.61 162.8 -424.26 158.13 -433.77 165.08 -434.61"/></g><g id="node5" class="node"><title>cs42l51.0-004a_AIN1L</title><polygon fill="#f2f2f2" stroke="#4d4d4d" points="836.5 -583 775.5 -583 775.5 -545 836.5 -545 836.5 -583"/><text x="806" y="-567.8" font-family="sans-serif" font-size="14" text-anchor="middle">AIN1L</text><text x="806" y="-552.8" font-family="sans-serif" font-size="14" text-anchor="middle">[input]</text></g><g id="node22" class="node"><title>cs42l51.0-004a_PGA-ADC Mux Left</title><polygon fill="#f2f2f2" stroke="#4d4d4d" points="876 -509 736 -509 736 -471 876 -471 876 -509"/><text x="806" y="-493.8" font-family="sans-serif" font-size="14" text-anchor="middle">PGA-ADC Mux Left</text><text x="806" y="-478.8" font-family="sans-serif" font-size="14" text-anchor="middle">[mux]</text></g><g id="edge14" class="edge"><title>cs42l51.0-004a_AIN1L-&gt;cs42l51.0-004a_PGA-ADC Mux Left</title><path fill="none" stroke="#000" d="M806,-544.83C806,-537.13 806,-527.97 806,-519.42"/><polygon fill="#000" stroke="#000" points="809.5 -519.41 806 -509.41 802.5 -519.41 809.5 -519.41"/></g><g id="node6" class="node"><title>cs42l51.0-004a_AIN1R</title><polygon fill="#f2f2f2" stroke="#4d4d4d" points="738.5 -583 677.5 -583 677.5 -545 738.5 -545 738.5 -583"/><text x="708" y="-567.8" font-family="sans-serif" font-size="14" text-anchor="middle">AIN1R</text><text x="708" y="-552.8" font-family="sans-serif" font-size="14" text-anchor="middle">[input]</text></g><g id="node23" class="node"><title>cs42l51.0-004a_PGA-ADC Mux Right</title><polygon fill="#f2f2f2" stroke="#4d4d4d" points="717.5 -509 568.5 -509 568.5 -471 717.5 -471 717.5 -509"/><text x="643" y="-493.8" font-family="sans-serif" font-size="14" text-anchor="middle">PGA-ADC Mux Right</text><text x="643" y="-478.8" font-family="sans-serif" font-size="14" text-anchor="middle">[mux]</text></g><g id="edge15" class="edge"><title>cs42l51.0-004a_AIN1R-&gt;cs42l51.0-004a_PGA-ADC Mux Right</title><path fill="none" stroke="#000" d="M691.6,-544.83C683.96,-536.37 674.73,-526.15 666.38,-516.9"/><polygon fill="#000" stroke="#000" points="668.92 -514.49 659.62 -509.41 663.73 -519.18 668.92 -514.49"/></g><g id="node7" class="node"><title>cs42l51.0-004a_AIN2L</title><polygon fill="#f2f2f2" stroke="#4d4d4d" points="659.5 -583 598.5 -583 598.5 -545 659.5 -545 659.5 -583"/><text x="629" y="-567.8" font-family="sans-serif" font-size="14" text-anchor="middle">AIN2L</text><text x="629" y="-552.8" font-family="sans-serif" font-size="14" text-anchor="middle">[input]</text></g><g id="node8" class="node"><title>cs42l51.0-004a_AIN2R</title><polygon fill="#f2f2f2" stroke="#4d4d4d" points="580.5 -583 519.5 -583 519.5 -545 580.5 -545 580.5 -583"/><text x="550" y="-567.8" font-family="sans-serif" font-size="14" text-anchor="middle">AIN2R</text><text x="550" y="-552.8" font-family="sans-serif" font-size="14" text-anchor="middle">[input]</text></g><g id="node9" class="node"><title>cs42l51.0-004a_Capture</title><polygon fill="#f2f2f2" stroke="#4d4d4d" points="692 -276 618 -276 618 -238 692 -238 692 -276"/><text x="655" y="-260.8" font-family="sans-serif" font-size="14" text-anchor="middle">Capture</text><text x="655" y="-245.8" font-family="sans-serif" font-size="14" text-anchor="middle">[dai_out]</text></g><g id="node10" class="node"><title>cs42l51.0-004a_DAC Mux</title><polygon fill="none" stroke="#008b00" stroke-width="2" points="598.5 -202 521.5 -202 521.5 -164 598.5 -164 598.5 -202"/><text x="560" y="-186.8" font-family="sans-serif" font-size="14" text-anchor="middle">DAC Mux</text><text x="560" y="-171.8" font-family="sans-serif" font-size="14" text-anchor="middle">[mux]</text></g><g id="node14" class="node"><title>cs42l51.0-004a_Left DAC</title><polygon fill="none" stroke="#008b00" stroke-width="2" points="548 -128 474 -128 474 -90 548 -90 548 -128"/><text x="511" y="-112.8" font-family="sans-serif" font-size="14" text-anchor="middle">Left DAC</text><text x="511" y="-97.8" font-family="sans-serif" font-size="14" text-anchor="middle">[dac]</text></g><g id="edge9" class="edge"><title>cs42l51.0-004a_DAC Mux-&gt;cs42l51.0-004a_Left DAC</title><path fill="none" stroke="#000" d="M547.64,-163.83C542.05,-155.62 535.34,-145.76 529.19,-136.73"/><polygon fill="#000" stroke="#000" points="532.05 -134.71 523.53 -128.41 526.26 -138.65 532.05 -134.71"/></g><g id="node26" class="node"><title>cs42l51.0-004a_Right DAC</title><polygon fill="none" stroke="#008b00" stroke-width="2" points="649.5 -128 566.5 -128 566.5 -90 649.5 -90 649.5 -128"/><text x="608" y="-112.8" font-family="sans-serif" font-size="14" text-anchor="middle">Right DAC</text><text x="608" y="-97.8" font-family="sans-serif" font-size="14" text-anchor="middle">[dac]</text></g><g id="edge18" class="edge"><title>cs42l51.0-004a_DAC Mux-&gt;cs42l51.0-004a_Right DAC</title><path fill="none" stroke="#000" d="M572.11,-163.83C577.53,-155.71 584.02,-145.96 589.99,-137.01"/><polygon fill="#000" stroke="#000" points="593.09 -138.68 595.72 -128.41 587.27 -134.79 593.09 -138.68"/></g><g id="node11" class="node"><title>cs42l51.0-004a_HPL</title><polygon fill="none" stroke="#008b00" stroke-width="2" points="546.5 -54 475.5 -54 475.5 -16 546.5 -16 546.5 -54"/><text x="511" y="-38.8" font-family="sans-serif" font-size="14" text-anchor="middle">HPL</text><text x="511" y="-23.8" font-family="sans-serif" font-size="14" text-anchor="middle">[output]</text></g><g id="node12" class="node"><title>cs42l51.0-004a_HPR</title><polygon fill="none" stroke="#008b00" stroke-width="2" points="643.5 -54 572.5 -54 572.5 -16 643.5 -16 643.5 -54"/><text x="608" y="-38.8" font-family="sans-serif" font-size="14" text-anchor="middle">HPR</text><text x="608" y="-23.8" font-family="sans-serif" font-size="14" text-anchor="middle">[output]</text></g><g id="node13" class="node"><title>cs42l51.0-004a_Left ADC</title><polygon fill="#f2f2f2" stroke="#4d4d4d" points="822 -350 748 -350 748 -312 822 -312 822 -350"/><text x="785" y="-334.8" font-family="sans-serif" font-size="14" text-anchor="middle">Left ADC</text><text x="785" y="-319.8" font-family="sans-serif" font-size="14" text-anchor="middle">[adc]</text></g><g id="edge4" class="edge"><title>cs42l51.0-004a_Left ADC-&gt;cs42l51.0-004a_Capture</title><path fill="none" stroke="#000" d="M752.2,-311.83C735.41,-302.54 714.8,-291.12 696.88,-281.2"/><polygon fill="#000" stroke="#000" points="698.24 -277.95 687.79 -276.16 694.85 -284.07 698.24 -277.95"/></g><g id="edge6" class="edge"><title>cs42l51.0-004a_Left DAC-&gt;cs42l51.0-004a_HPL</title><path fill="none" stroke="#000" d="M511,-89.83C511,-82.13 511,-72.97 511,-64.42"/><polygon fill="#000" stroke="#000" points="514.5 -64.41 511 -54.41 507.5 -64.41 514.5 -64.41"/></g><g id="node15" class="node"><title>cs42l51.0-004a_Left PGA</title><polygon fill="#f2f2f2" stroke="#4d4d4d" points="838 -424 764 -424 764 -386 838 -386 838 -424"/><text x="801" y="-408.8" font-family="sans-serif" font-size="14" text-anchor="middle">Left PGA</text><text x="801" y="-393.8" font-family="sans-serif" font-size="14" text-anchor="middle">[pga]</text></g><g id="edge8" class="edge"><title>cs42l51.0-004a_Left PGA-&gt;cs42l51.0-004a_Left ADC</title><path fill="none" stroke="#000" d="M796.96,-385.83C795.25,-378.13 793.22,-368.97 791.31,-360.42"/><polygon fill="#000" stroke="#000" points="794.68 -359.42 789.09 -350.41 787.84 -360.93 794.68 -359.42"/></g><g id="node16" class="node"><title>cs42l51.0-004a_MCLK</title><polygon fill="none" stroke="#008b00" stroke-width="2" points="594.5 -350 525.5 -350 525.5 -312 594.5 -312 594.5 -350"/><text x="560" y="-334.8" font-family="sans-serif" font-size="14" text-anchor="middle">MCLK</text><text x="560" y="-319.8" font-family="sans-serif" font-size="14" text-anchor="middle">[supply]</text></g><g id="edge2" class="edge"><title>cs42l51.0-004a_MCLK-&gt;cs42l51.0-004a_Capture</title><path fill="none" stroke="#000" d="M583.97,-311.83C595.79,-302.88 610.2,-291.96 622.94,-282.3"/><polygon fill="#000" stroke="#000" points="625.18 -284.99 631.04 -276.16 620.95 -279.41 625.18 -284.99"/></g><g id="node24" class="node"><title>cs42l51.0-004a_Playback</title><polygon fill="none" stroke="#008b00" stroke-width="2" points="597 -276 523 -276 523 -238 597 -238 597 -276"/><text x="560" y="-260.8" font-family="sans-serif" font-size="14" text-anchor="middle">Playback</text><text x="560" y="-245.8" font-family="sans-serif" font-size="14" text-anchor="middle">[dai_in]</text></g><g id="edge16" class="edge"><title>cs42l51.0-004a_MCLK-&gt;cs42l51.0-004a_Playback</title><path fill="none" stroke="#000" d="M560,-311.83C560,-304.13 560,-294.97 560,-286.42"/><polygon fill="#000" stroke="#000" points="563.5 -286.41 560 -276.41 556.5 -286.41 563.5 -286.41"/></g><g id="node17" class="node"><title>cs42l51.0-004a_MICL</title><polygon fill="#f2f2f2" stroke="#4d4d4d" points="399.5 -509 338.5 -509 338.5 -471 399.5 -471 399.5 -509"/><text x="369" y="-493.8" font-family="sans-serif" font-size="14" text-anchor="middle">MICL</text><text x="369" y="-478.8" font-family="sans-serif" font-size="14" text-anchor="middle">[input]</text></g><g id="node20" class="node"><title>cs42l51.0-004a_Mic Preamp Left</title><polygon fill="#f2f2f2" stroke="#4d4d4d" points="461.5 -424 338.5 -424 338.5 -386 461.5 -386 461.5 -424"/><text x="400" y="-408.8" font-family="sans-serif" font-size="14" text-anchor="middle">Mic Preamp Left</text><text x="400" y="-393.8" font-family="sans-serif" font-size="14" text-anchor="middle">[mixer]</text></g><g id="edge12" class="edge"><title>cs42l51.0-004a_MICL-&gt;cs42l51.0-004a_Mic Preamp Left</title><path fill="none" stroke="#000" d="M375.73,-470.99C379.8,-460.08 385.08,-445.94 389.68,-433.64"/><polygon fill="#000" stroke="#000" points="392.96 -434.85 393.18 -424.26 386.4 -432.4 392.96 -434.85"/></g><g id="node18" class="node"><title>cs42l51.0-004a_MICR</title><polygon fill="#f2f2f2" stroke="#4d4d4d" points="501.5 -583 440.5 -583 440.5 -545 501.5 -545 501.5 -583"/><text x="471" y="-567.8" font-family="sans-serif" font-size="14" text-anchor="middle">MICR</text><text x="471" y="-552.8" font-family="sans-serif" font-size="14" text-anchor="middle">[input]</text></g><g id="node21" class="node"><title>cs42l51.0-004a_Mic Preamp Right</title><polygon fill="#f2f2f2" stroke="#4d4d4d" points="550.5 -509 417.5 -509 417.5 -471 550.5 -471 550.5 -509"/><text x="484" y="-493.8" font-family="sans-serif" font-size="14" text-anchor="middle">Mic Preamp Right</text><text x="484" y="-478.8" font-family="sans-serif" font-size="14" text-anchor="middle">[mixer]</text></g><g id="edge13" class="edge"><title>cs42l51.0-004a_MICR-&gt;cs42l51.0-004a_Mic Preamp Right</title><path fill="none" stroke="#000" d="M474.28,-544.83C475.67,-537.13 477.32,-527.97 478.87,-519.42"/><polygon fill="#000" stroke="#000" points="482.34 -519.88 480.68 -509.41 475.45 -518.63 482.34 -519.88"/></g><g id="node19" class="node"><title>cs42l51.0-004a_Mic Bias</title><polygon fill="#f2f2f2" stroke="#4d4d4d" points="409.5 -583 338.5 -583 338.5 -545 409.5 -545 409.5 -583"/><text x="374" y="-567.8" font-family="sans-serif" font-size="14" text-anchor="middle">Mic Bias</text><text x="374" y="-552.8" font-family="sans-serif" font-size="14" text-anchor="middle">[supply]</text></g><g id="edge11" class="edge"><title>cs42l51.0-004a_Mic Bias-&gt;cs42l51.0-004a_MICL</title><path fill="none" stroke="#000" d="M372.74,-544.83C372.2,-537.13 371.57,-527.97 370.97,-519.42"/><polygon fill="#000" stroke="#000" points="374.46 -519.15 370.28 -509.41 367.48 -519.63 374.46 -519.15"/></g><g id="edge10" class="edge"><title>cs42l51.0-004a_PGA-ADC Mux Left-&gt;cs42l51.0-004a_Left PGA</title><path fill="none" stroke="#000" d="M804.92,-470.99C804.27,-460.3 803.44,-446.5 802.71,-434.37"/><polygon fill="#000" stroke="#000" points="806.2 -434.03 802.1 -424.26 799.21 -434.45 806.2 -434.03"/></g><g id="node27" class="node"><title>cs42l51.0-004a_Right PGA</title><polygon fill="#f2f2f2" stroke="#4d4d4d" points="688.5 -424 605.5 -424 605.5 -386 688.5 -386 688.5 -424"/><text x="647" y="-408.8" font-family="sans-serif" font-size="14" text-anchor="middle">Right PGA</text><text x="647" y="-393.8" font-family="sans-serif" font-size="14" text-anchor="middle">[pga]</text></g><g id="edge19" class="edge"><title>cs42l51.0-004a_PGA-ADC Mux Right-&gt;cs42l51.0-004a_Right PGA</title><path fill="none" stroke="#000" d="M643.87,-470.99C644.38,-460.3 645.05,-446.5 645.63,-434.37"/><polygon fill="#000" stroke="#000" points="649.13 -434.42 646.12 -424.26 642.14 -434.08 649.13 -434.42"/></g><g id="edge5" class="edge"><title>cs42l51.0-004a_Playback-&gt;cs42l51.0-004a_DAC Mux</title><path fill="none" stroke="#000" d="M560,-237.83C560,-230.13 560,-220.97 560,-212.42"/><polygon fill="#000" stroke="#000" points="563.5 -212.41 560 -202.41 556.5 -212.41 563.5 -212.41"/></g><g id="node25" class="node"><title>cs42l51.0-004a_Right ADC</title><polygon fill="#f2f2f2" stroke="#4d4d4d" points="697 -350 613 -350 613 -312 697 -312 697 -350"/><text x="655" y="-334.8" font-family="sans-serif" font-size="14" text-anchor="middle">Right ADC</text><text x="655" y="-319.8" font-family="sans-serif" font-size="14" text-anchor="middle">[adc]</text></g><g id="edge3" class="edge"><title>cs42l51.0-004a_Right ADC-&gt;cs42l51.0-004a_Capture</title><path fill="none" stroke="#000" d="M655,-311.83C655,-304.13 655,-294.97 655,-286.42"/><polygon fill="#000" stroke="#000" points="658.5 -286.41 655 -276.41 651.5 -286.41 658.5 -286.41"/></g><g id="edge7" class="edge"><title>cs42l51.0-004a_Right DAC-&gt;cs42l51.0-004a_HPR</title><path fill="none" stroke="#000" d="M608,-89.83C608,-82.13 608,-72.97 608,-64.42"/><polygon fill="#000" stroke="#000" points="611.5 -64.41 608 -54.41 604.5 -64.41 611.5 -64.41"/></g><g id="edge17" class="edge"><title>cs42l51.0-004a_Right PGA-&gt;cs42l51.0-004a_Right ADC</title><path fill="none" stroke="#000" d="M649.02,-385.83C649.87,-378.13 650.89,-368.97 651.84,-360.42"/><polygon fill="#000" stroke="#000" points="655.33 -360.74 652.95 -350.41 648.37 -359.97 655.33 -360.74"/></g><g id="node30" class="node"><title>hdmi-audio-codec.1.auto_TX</title><polygon fill="#f2f2f2" stroke="#4d4d4d" points="281.5 -509 210.5 -509 210.5 -471 281.5 -471 281.5 -509"/><text x="246" y="-493.8" font-family="sans-serif" font-size="14" text-anchor="middle">TX</text><text x="246" y="-478.8" font-family="sans-serif" font-size="14" text-anchor="middle">[output]</text></g><g id="edge22" class="edge"><title>hdmi-audio-codec.1.auto_I2S Playback-&gt;hdmi-audio-codec.1.auto_TX</title><path fill="none" stroke="#000" d="M254.22,-544.83C253.05,-537.13 251.65,-527.97 250.34,-519.42"/><polygon fill="#000" stroke="#000" points="253.78 -518.77 248.81 -509.41 246.86 -519.83 253.78 -518.77"/></g><g id="node29" class="node"><title>hdmi-audio-codec.1.auto_RX</title><polygon fill="#f2f2f2" stroke="#4d4d4d" points="189.5 -583 118.5 -583 118.5 -545 189.5 -545 189.5 -583"/><text x="154" y="-567.8" font-family="sans-serif" font-size="14" text-anchor="middle">RX</text><text x="154" y="-552.8" font-family="sans-serif" font-size="14" text-anchor="middle">[output]</text></g><g id="edge20" class="edge"><title>hdmi-audio-codec.1.auto_RX-&gt;hdmi-audio-codec.1.auto_Capture</title><path fill="none" stroke="#000" d="M154.25,-544.83C154.36,-537.13 154.49,-527.97 154.61,-519.42"/><polygon fill="#000" stroke="#000" points="158.1 -519.46 154.74 -509.41 151.11 -519.36 158.1 -519.46"/></g></g></svg>