<svg xmlns="http://www.w3.org/2000/svg" xmlns:xlink="http://www.w3.org/1999/xlink" width="1703pt" height="1964" viewBox="0 0 1703 1473"><g id="graph0" class="graph" transform="scale(1 1) rotate(0) translate(4 1469)"><title>board</title><polygon fill="#fff" stroke="transparent" points="-4 4 -4 -1469 1699 -1469 1699 4 -4 4"/><g id="node1" class="node"><title>n00000001</title><polygon fill="#ff0" stroke="#000" points="832.99 -750.08 629.99 -750.08 629.99 -712.08 832.99 -712.08 832.99 -750.08"/><text x="731.49" y="-734.88" font-family="Times,serif" font-size="14" text-anchor="middle">Intel IPU6 ISYS Capture 0</text><text x="731.49" y="-719.88" font-family="Times,serif" font-size="14" text-anchor="middle">/dev/video0</text></g><g id="node2" class="node"><title>n00000005</title><polygon fill="#ff0" stroke="#000" points="1396.59 -771.88 1193.59 -771.88 1193.59 -733.88 1396.59 -733.88 1396.59 -771.88"/><text x="1295.09" y="-756.68" font-family="Times,serif" font-size="14" text-anchor="middle">Intel IPU6 ISYS Capture 1</text><text x="1295.09" y="-741.68" font-family="Times,serif" font-size="14" text-anchor="middle">/dev/video1</text></g><g id="node3" class="node"><title>n00000009</title><polygon fill="#ff0" stroke="#000" points="1118.52 -690.47 915.52 -690.47 915.52 -652.47 1118.52 -652.47 1118.52 -690.47"/><text x="1017.02" y="-675.27" font-family="Times,serif" font-size="14" text-anchor="middle">Intel IPU6 ISYS Capture 2</text><text x="1017.02" y="-660.27" font-family="Times,serif" font-size="14" text-anchor="middle">/dev/video2</text></g><g id="node4" class="node"><title>n0000000d</title><polygon fill="#ff0" stroke="#000" points="1105.89 -838.84 902.89 -838.84 902.89 -800.84 1105.89 -800.84 1105.89 -838.84"/><text x="1004.39" y="-823.64" font-family="Times,serif" font-size="14" text-anchor="middle">Intel IPU6 ISYS Capture 3</text><text x="1004.39" y="-808.64" font-family="Times,serif" font-size="14" text-anchor="middle">/dev/video3</text></g><g id="node5" class="node"><title>n00000011</title><polygon fill="#ff0" stroke="#000" points="1279.22 -992.95 1076.22 -992.95 1076.22 -954.95 1279.22 -954.95 1279.22 -992.95"/><text x="1177.72" y="-977.75" font-family="Times,serif" font-size="14" text-anchor="middle">Intel IPU6 ISYS Capture 4</text><text x="1177.72" y="-962.75" font-family="Times,serif" font-size="14" text-anchor="middle">/dev/video4</text></g><g id="node6" class="node"><title>n00000015</title><polygon fill="#ff0" stroke="#000" points="939.18 -984.91 736.18 -984.91 736.18 -946.91 939.18 -946.91 939.18 -984.91"/><text x="837.68" y="-969.71" font-family="Times,serif" font-size="14" text-anchor="middle">Intel IPU6 ISYS Capture 5</text><text x="837.68" y="-954.71" font-family="Times,serif" font-size="14" text-anchor="middle">/dev/video5</text></g><g id="node7" class="node"><title>n00000019</title><polygon fill="#ff0" stroke="#000" points="957.87 -527.99 754.87 -527.99 754.87 -489.99 957.87 -489.99 957.87 -527.99"/><text x="856.37" y="-512.79" font-family="Times,serif" font-size="14" text-anchor="middle">Intel IPU6 ISYS Capture 6</text><text x="856.37" y="-497.79" font-family="Times,serif" font-size="14" text-anchor="middle">/dev/video6</text></g><g id="node8" class="node"><title>n0000001d</title><polygon fill="#ff0" stroke="#000" points="1291.02 -542.15 1088.02 -542.15 1088.02 -504.15 1291.02 -504.15 1291.02 -542.15"/><text x="1189.52" y="-526.95" font-family="Times,serif" font-size="14" text-anchor="middle">Intel IPU6 ISYS Capture 7</text><text x="1189.52" y="-511.95" font-family="Times,serif" font-size="14" text-anchor="middle">/dev/video7</text></g><g id="node9" class="node"><title>n00000021</title><polygon fill="#ff0" stroke="#000" points="202.74 -611.46 -.26 -611.46 -.26 -573.46 202.74 -573.46 202.74 -611.46"/><text x="101.24" y="-596.26" font-family="Times,serif" font-size="14" text-anchor="middle">Intel IPU6 ISYS Capture 8</text><text x="101.24" y="-581.26" font-family="Times,serif" font-size="14" text-anchor="middle">/dev/video8</text></g><g id="node10" class="node"><title>n00000025</title><polygon fill="#ff0" stroke="#000" points="764.86 -637.89 561.86 -637.89 561.86 -599.89 764.86 -599.89 764.86 -637.89"/><text x="663.36" y="-622.69" font-family="Times,serif" font-size="14" text-anchor="middle">Intel IPU6 ISYS Capture 9</text><text x="663.36" y="-607.69" font-family="Times,serif" font-size="14" text-anchor="middle">/dev/video9</text></g><g id="node11" class="node"><title>n00000029</title><polygon fill="#ff0" stroke="#000" points="358.62 -519.5 146.62 -519.5 146.62 -481.5 358.62 -481.5 358.62 -519.5"/><text x="252.62" y="-504.3" font-family="Times,serif" font-size="14" text-anchor="middle">Intel IPU6 ISYS Capture 10</text><text x="252.62" y="-489.3" font-family="Times,serif" font-size="14" text-anchor="middle">/dev/video10</text></g><g id="node12" class="node"><title>n0000002d</title><polygon fill="#ff0" stroke="#000" points="481.4 -662.59 269.4 -662.59 269.4 -624.59 481.4 -624.59 481.4 -662.59"/><text x="375.4" y="-647.39" font-family="Times,serif" font-size="14" text-anchor="middle">Intel IPU6 ISYS Capture 11</text><text x="375.4" y="-632.39" font-family="Times,serif" font-size="14" text-anchor="middle">/dev/video11</text></g><g id="node13" class="node"><title>n00000031</title><polygon fill="#ff0" stroke="#000" points="637.17 -837.47 425.17 -837.47 425.17 -799.47 637.17 -799.47 637.17 -837.47"/><text x="531.17" y="-822.27" font-family="Times,serif" font-size="14" text-anchor="middle">Intel IPU6 ISYS Capture 12</text><text x="531.17" y="-807.27" font-family="Times,serif" font-size="14" text-anchor="middle">/dev/video12</text></g><g id="node14" class="node"><title>n00000035</title><polygon fill="#ff0" stroke="#000" points="337.75 -833.67 125.75 -833.67 125.75 -795.67 337.75 -795.67 337.75 -833.67"/><text x="231.75" y="-818.47" font-family="Times,serif" font-size="14" text-anchor="middle">Intel IPU6 ISYS Capture 13</text><text x="231.75" y="-803.47" font-family="Times,serif" font-size="14" text-anchor="middle">/dev/video13</text></g><g id="node15" class="node"><title>n00000039</title><polygon fill="#ff0" stroke="#000" points="393.07 -317.96 181.07 -317.96 181.07 -279.96 393.07 -279.96 393.07 -317.96"/><text x="287.07" y="-302.76" font-family="Times,serif" font-size="14" text-anchor="middle">Intel IPU6 ISYS Capture 14</text><text x="287.07" y="-287.76" font-family="Times,serif" font-size="14" text-anchor="middle">/dev/video14</text></g><g id="node16" class="node"><title>n0000003d</title><polygon fill="#ff0" stroke="#000" points="701.46 -391.04 489.46 -391.04 489.46 -353.04 701.46 -353.04 701.46 -391.04"/><text x="595.46" y="-375.84" font-family="Times,serif" font-size="14" text-anchor="middle">Intel IPU6 ISYS Capture 15</text><text x="595.46" y="-360.84" font-family="Times,serif" font-size="14" text-anchor="middle">/dev/video15</text></g><g id="node17" class="node"><title>n00000041</title><polygon fill="#ff0" stroke="#000" points="212.45 -1228.8 .45 -1228.8 .45 -1190.8 212.45 -1190.8 212.45 -1228.8"/><text x="106.45" y="-1213.6" font-family="Times,serif" font-size="14" text-anchor="middle">Intel IPU6 ISYS Capture 16</text><text x="106.45" y="-1198.6" font-family="Times,serif" font-size="14" text-anchor="middle">/dev/video16</text></g><g id="node18" class="node"><title>n00000045</title><polygon fill="#ff0" stroke="#000" points="784.86 -1252.38 572.86 -1252.38 572.86 -1214.38 784.86 -1214.38 784.86 -1252.38"/><text x="678.86" y="-1237.18" font-family="Times,serif" font-size="14" text-anchor="middle">Intel IPU6 ISYS Capture 17</text><text x="678.86" y="-1222.18" font-family="Times,serif" font-size="14" text-anchor="middle">/dev/video17</text></g><g id="node19" class="node"><title>n00000049</title><polygon fill="#ff0" stroke="#000" points="503.14 -1169.96 291.14 -1169.96 291.14 -1131.96 503.14 -1131.96 503.14 -1169.96"/><text x="397.14" y="-1154.76" font-family="Times,serif" font-size="14" text-anchor="middle">Intel IPU6 ISYS Capture 18</text><text x="397.14" y="-1139.76" font-family="Times,serif" font-size="14" text-anchor="middle">/dev/video18</text></g><g id="node20" class="node"><title>n0000004d</title><polygon fill="#ff0" stroke="#000" points="492.62 -1319.4 280.62 -1319.4 280.62 -1281.4 492.62 -1281.4 492.62 -1319.4"/><text x="386.62" y="-1304.2" font-family="Times,serif" font-size="14" text-anchor="middle">Intel IPU6 ISYS Capture 19</text><text x="386.62" y="-1289.2" font-family="Times,serif" font-size="14" text-anchor="middle">/dev/video19</text></g><g id="node21" class="node"><title>n00000051</title><polygon fill="#ff0" stroke="#000" points="680.74 -1464.66 468.74 -1464.66 468.74 -1426.66 680.74 -1426.66 680.74 -1464.66"/><text x="574.74" y="-1449.46" font-family="Times,serif" font-size="14" text-anchor="middle">Intel IPU6 ISYS Capture 20</text><text x="574.74" y="-1434.46" font-family="Times,serif" font-size="14" text-anchor="middle">/dev/video20</text></g><g id="node22" class="node"><title>n00000055</title><polygon fill="#ff0" stroke="#000" points="302.42 -1452.56 90.42 -1452.56 90.42 -1414.56 302.42 -1414.56 302.42 -1452.56"/><text x="196.42" y="-1437.36" font-family="Times,serif" font-size="14" text-anchor="middle">Intel IPU6 ISYS Capture 21</text><text x="196.42" y="-1422.36" font-family="Times,serif" font-size="14" text-anchor="middle">/dev/video21</text></g><g id="node23" class="node"><title>n00000059</title><polygon fill="#ff0" stroke="#000" points="319.89 -1018.32 107.89 -1018.32 107.89 -980.32 319.89 -980.32 319.89 -1018.32"/><text x="213.89" y="-1003.12" font-family="Times,serif" font-size="14" text-anchor="middle">Intel IPU6 ISYS Capture 22</text><text x="213.89" y="-988.12" font-family="Times,serif" font-size="14" text-anchor="middle">/dev/video22</text></g><g id="node24" class="node"><title>n0000005d</title><polygon fill="#ff0" stroke="#000" points="692.62 -1031.39 480.62 -1031.39 480.62 -993.39 692.62 -993.39 692.62 -1031.39"/><text x="586.62" y="-1016.19" font-family="Times,serif" font-size="14" text-anchor="middle">Intel IPU6 ISYS Capture 23</text><text x="586.62" y="-1001.19" font-family="Times,serif" font-size="14" text-anchor="middle">/dev/video23</text></g><g id="node25" class="node"><title>n00000061</title><polygon fill="#ff0" stroke="#000" points="1122.45 -248.8 910.45 -248.8 910.45 -210.8 1122.45 -210.8 1122.45 -248.8"/><text x="1016.45" y="-233.6" font-family="Times,serif" font-size="14" text-anchor="middle">Intel IPU6 ISYS Capture 24</text><text x="1016.45" y="-218.6" font-family="Times,serif" font-size="14" text-anchor="middle">/dev/video24</text></g><g id="node26" class="node"><title>n00000065</title><polygon fill="#ff0" stroke="#000" points="1694.86 -272.38 1482.86 -272.38 1482.86 -234.38 1694.86 -234.38 1694.86 -272.38"/><text x="1588.86" y="-257.18" font-family="Times,serif" font-size="14" text-anchor="middle">Intel IPU6 ISYS Capture 25</text><text x="1588.86" y="-242.18" font-family="Times,serif" font-size="14" text-anchor="middle">/dev/video25</text></g><g id="node27" class="node"><title>n00000069</title><polygon fill="#ff0" stroke="#000" points="1413.14 -189.96 1201.14 -189.96 1201.14 -151.96 1413.14 -151.96 1413.14 -189.96"/><text x="1307.14" y="-174.76" font-family="Times,serif" font-size="14" text-anchor="middle">Intel IPU6 ISYS Capture 26</text><text x="1307.14" y="-159.76" font-family="Times,serif" font-size="14" text-anchor="middle">/dev/video26</text></g><g id="node28" class="node"><title>n0000006d</title><polygon fill="#ff0" stroke="#000" points="1402.62 -339.4 1190.62 -339.4 1190.62 -301.4 1402.62 -301.4 1402.62 -339.4"/><text x="1296.62" y="-324.2" font-family="Times,serif" font-size="14" text-anchor="middle">Intel IPU6 ISYS Capture 27</text><text x="1296.62" y="-309.2" font-family="Times,serif" font-size="14" text-anchor="middle">/dev/video27</text></g><g id="node29" class="node"><title>n00000071</title><polygon fill="#ff0" stroke="#000" points="1590.74 -484.66 1378.74 -484.66 1378.74 -446.66 1590.74 -446.66 1590.74 -484.66"/><text x="1484.74" y="-469.46" font-family="Times,serif" font-size="14" text-anchor="middle">Intel IPU6 ISYS Capture 28</text><text x="1484.74" y="-454.46" font-family="Times,serif" font-size="14" text-anchor="middle">/dev/video28</text></g><g id="node30" class="node"><title>n00000075</title><polygon fill="#ff0" stroke="#000" points="1212.42 -472.56 1000.42 -472.56 1000.42 -434.56 1212.42 -434.56 1212.42 -472.56"/><text x="1106.42" y="-457.36" font-family="Times,serif" font-size="14" text-anchor="middle">Intel IPU6 ISYS Capture 29</text><text x="1106.42" y="-442.36" font-family="Times,serif" font-size="14" text-anchor="middle">/dev/video29</text></g><g id="node31" class="node"><title>n00000079</title><polygon fill="#ff0" stroke="#000" points="1229.89 -38.32 1017.89 -38.32 1017.89 -.32 1229.89 -.32 1229.89 -38.32"/><text x="1123.89" y="-23.12" font-family="Times,serif" font-size="14" text-anchor="middle">Intel IPU6 ISYS Capture 30</text><text x="1123.89" y="-8.12" font-family="Times,serif" font-size="14" text-anchor="middle">/dev/video30</text></g><g id="node32" class="node"><title>n0000007d</title><polygon fill="#ff0" stroke="#000" points="1602.62 -51.39 1390.62 -51.39 1390.62 -13.39 1602.62 -13.39 1602.62 -51.39"/><text x="1496.62" y="-36.19" font-family="Times,serif" font-size="14" text-anchor="middle">Intel IPU6 ISYS Capture 31</text><text x="1496.62" y="-21.19" font-family="Times,serif" font-size="14" text-anchor="middle">/dev/video31</text></g><g id="node33" class="node"><title>n00000081</title><path fill="green" stroke="#000" d="M924.28,-700.28C924.28,-700.28 1108.28,-700.28 1108.28,-700.28 1114.28,-700.28 1120.28,-706.28 1120.28,-712.28 1120.28,-712.28 1120.28,-772.28 1120.28,-772.28 1120.28,-778.28 1114.28,-784.28 1108.28,-784.28 1108.28,-784.28 924.28,-784.28 924.28,-784.28 918.28,-784.28 912.28,-778.28 912.28,-772.28 912.28,-772.28 912.28,-712.28 912.28,-712.28 912.28,-706.28 918.28,-700.28 924.28,-700.28"/><text x="1016.28" y="-769.08" font-family="Times,serif" font-size="14" text-anchor="middle">0</text><polyline fill="none" stroke="#000" points="912.28 -761.28 1120.28 -761.28"/><text x="1016.28" y="-746.08" font-family="Times,serif" font-size="14" text-anchor="middle">Intel IPU6 CSI2 0</text><text x="1016.28" y="-731.08" font-family="Times,serif" font-size="14" text-anchor="middle">/dev/v4l-subdev0</text><polyline fill="none" stroke="#000" points="912.28 -723.28 1120.28 -723.28"/><text x="925.28" y="-708.08" font-family="Times,serif" font-size="14" text-anchor="middle">1</text><polyline fill="none" stroke="#000" points="938.28 -700.28 938.28 -723.28"/><text x="951.28" y="-708.08" font-family="Times,serif" font-size="14" text-anchor="middle">2</text><polyline fill="none" stroke="#000" points="964.28 -700.28 964.28 -723.28"/><text x="977.28" y="-708.08" font-family="Times,serif" font-size="14" text-anchor="middle">3</text><polyline fill="none" stroke="#000" points="990.28 -700.28 990.28 -723.28"/><text x="1003.28" y="-708.08" font-family="Times,serif" font-size="14" text-anchor="middle">4</text><polyline fill="none" stroke="#000" points="1016.28 -700.28 1016.28 -723.28"/><text x="1029.28" y="-708.08" font-family="Times,serif" font-size="14" text-anchor="middle">5</text><polyline fill="none" stroke="#000" points="1042.28 -700.28 1042.28 -723.28"/><text x="1055.28" y="-708.08" font-family="Times,serif" font-size="14" text-anchor="middle">6</text><polyline fill="none" stroke="#000" points="1068.28 -700.28 1068.28 -723.28"/><text x="1081.28" y="-708.08" font-family="Times,serif" font-size="14" text-anchor="middle">7</text><polyline fill="none" stroke="#000" points="1094.28 -700.28 1094.28 -723.28"/><text x="1107.28" y="-708.08" font-family="Times,serif" font-size="14" text-anchor="middle">8</text></g><g id="edge1" class="edge"><title>n00000081:port1-&gt;n00000001</title><path fill="none" stroke="#000" stroke-dasharray="5 2" d="M912.28,-711.28C912.28,-711.28 880.33,-714.78 843.28,-718.84"/><polygon fill="#000" stroke="#000" points="842.81 -715.37 833.25 -719.94 843.57 -722.33 842.81 -715.37"/></g><g id="edge2" class="edge"><title>n00000081:port2-&gt;n00000005</title><path fill="none" stroke="#000" stroke-dasharray="5 2" d="M951.38,-700.28C951.38,-700.28 1086.18,-688.61 1123.48,-697.08 1155.93,-704.45 1158.99,-719.67 1190.39,-730.68 1190.49,-730.71 1190.59,-730.75 1190.69,-730.78"/><polygon fill="#000" stroke="#000" points="1189.45 -734.06 1200.05 -733.86 1191.64 -727.41 1189.45 -734.06"/></g><g id="edge3" class="edge"><title>n00000081:port3-&gt;n00000009</title><path fill="none" stroke="#000" stroke-dasharray="5 2" d="M977.28,-700.28C977.28,-700.28 979.31,-698.81 982.45,-696.54"/><polygon fill="#000" stroke="#000" points="984.7 -699.23 990.74 -690.53 980.59 -693.56 984.7 -699.23"/></g><g id="edge4" class="edge"><title>n00000081:port4-&gt;n0000000d</title><path fill="none" stroke="#000" stroke-dasharray="5 2" d="M1003.38,-700.26C1003.38,-700.26 916.62,-689.8 909.08,-697.08 880.2,-725.01 885.68,-754.82 909.08,-787.48 910.88,-789.99 918.96,-793.59 929.7,-797.47"/><polygon fill="#000" stroke="#000" points="928.69 -800.82 939.28 -800.79 930.98 -794.21 928.69 -800.82"/></g><g id="edge5" class="edge"><title>n00000081:port5-&gt;n00000011</title><path fill="none" stroke="#000" stroke-dasharray="5 2" d="M1029.19,-700.26C1029.19,-700.26 1115.28,-690.56 1123.48,-697.08 1198.37,-756.64 1190.55,-886.51 1182.64,-944.71"/><polygon fill="#000" stroke="#000" points="1179.16 -944.31 1181.18 -954.71 1186.09 -945.32 1179.16 -944.31"/></g><g id="edge6" class="edge"><title>n00000081:port6-&gt;n00000015</title><path fill="none" stroke="#000" stroke-dasharray="5 2" d="M1055.18,-700.28C1055.18,-700.28 915.57,-692.2 909.08,-697.08 834.02,-753.51 831.79,-879.34 835.06,-936.56"/><polygon fill="#000" stroke="#000" points="831.58 -936.99 835.74 -946.73 838.56 -936.52 831.58 -936.99"/></g><g id="edge7" class="edge"><title>n00000081:port7-&gt;n00000019</title><path fill="none" stroke="#000" stroke-dasharray="5 2" d="M1081.28,-700.28C1081.28,-700.28 916.04,-696.54 912.32,-693.67 864.52,-656.73 856.3,-580.22 855.62,-538.2"/><polygon fill="#000" stroke="#000" points="859.11 -538.05 855.59 -528.06 852.11 -538.07 859.11 -538.05"/></g><g id="edge8" class="edge"><title>n00000081:port8-&gt;n0000001d</title><path fill="none" stroke="#000" stroke-dasharray="5 2" d="M1107.28,-700.28C1107.28,-700.28 1119.29,-696.23 1121.72,-693.67 1159.76,-653.62 1177.38,-589.6 1184.78,-552.46"/><polygon fill="#000" stroke="#000" points="1188.29 -552.76 1186.69 -542.29 1181.41 -551.47 1188.29 -552.76"/></g><g id="node34" class="node"><title>n0000008b</title><path fill="green" stroke="#000" d="M293.1,-532.08C293.1,-532.08 477.1,-532.08 477.1,-532.08 483.1,-532.08 489.1,-538.08 489.1,-544.08 489.1,-544.08 489.1,-604.08 489.1,-604.08 489.1,-610.08 483.1,-616.08 477.1,-616.08 477.1,-616.08 293.1,-616.08 293.1,-616.08 287.1,-616.08 281.1,-610.08 281.1,-604.08 281.1,-604.08 281.1,-544.08 281.1,-544.08 281.1,-538.08 287.1,-532.08 293.1,-532.08"/><text x="385.1" y="-600.88" font-family="Times,serif" font-size="14" text-anchor="middle">0</text><polyline fill="none" stroke="#000" points="281.1 -593.08 489.1 -593.08"/><text x="385.1" y="-577.88" font-family="Times,serif" font-size="14" text-anchor="middle">Intel IPU6 CSI2 1</text><text x="385.1" y="-562.88" font-family="Times,serif" font-size="14" text-anchor="middle">/dev/v4l-subdev1</text><polyline fill="none" stroke="#000" points="281.1 -555.08 489.1 -555.08"/><text x="294.1" y="-539.88" font-family="Times,serif" font-size="14" text-anchor="middle">1</text><polyline fill="none" stroke="#000" points="307.1 -532.08 307.1 -555.08"/><text x="320.1" y="-539.88" font-family="Times,serif" font-size="14" text-anchor="middle">2</text><polyline fill="none" stroke="#000" points="333.1 -532.08 333.1 -555.08"/><text x="346.1" y="-539.88" font-family="Times,serif" font-size="14" text-anchor="middle">3</text><polyline fill="none" stroke="#000" points="359.1 -532.08 359.1 -555.08"/><text x="372.1" y="-539.88" font-family="Times,serif" font-size="14" text-anchor="middle">4</text><polyline fill="none" stroke="#000" points="385.1 -532.08 385.1 -555.08"/><text x="398.1" y="-539.88" font-family="Times,serif" font-size="14" text-anchor="middle">5</text><polyline fill="none" stroke="#000" points="411.1 -532.08 411.1 -555.08"/><text x="424.1" y="-539.88" font-family="Times,serif" font-size="14" text-anchor="middle">6</text><polyline fill="none" stroke="#000" points="437.1 -532.08 437.1 -555.08"/><text x="450.1" y="-539.88" font-family="Times,serif" font-size="14" text-anchor="middle">7</text><polyline fill="none" stroke="#000" points="463.1 -532.08 463.1 -555.08"/><text x="476.1" y="-539.88" font-family="Times,serif" font-size="14" text-anchor="middle">8</text></g><g id="edge9" class="edge"><title>n0000008b:port1-&gt;n00000021</title><path fill="none" stroke="#000" d="M281.1,-543.08C281.1,-543.08 240.1,-560.51 205.94,-570.26 205.35,-570.43 204.77,-570.59 204.18,-570.76"/><polygon fill="#000" stroke="#000" points="203.2 -567.39 194.47 -573.39 205.03 -574.15 203.2 -567.39"/></g><g id="edge10" class="edge"><title>n0000008b:port2-&gt;n00000025</title><path fill="none" stroke="#000" d="M320.2,-532.07C320.2,-532.07 456.9,-514.37 492.3,-528.88 528.42,-543.68 522.86,-571.78 556.11,-594.53"/><polygon fill="#000" stroke="#000" points="554.54 -597.67 564.9 -599.88 558.18 -591.69 554.54 -597.67"/></g><g id="edge11" class="edge"><title>n0000008b:port3-&gt;n00000029</title><path fill="none" stroke="#000" stroke-dasharray="5 2" d="M346.1,-532.08C346.1,-532.08 333.93,-527.96 318.37,-522.71"/><polygon fill="#000" stroke="#000" points="319.48 -519.39 308.88 -519.5 317.24 -526.02 319.48 -519.39"/></g><g id="edge12" class="edge"><title>n0000008b:port4-&gt;n0000002d</title><path fill="none" stroke="#000" stroke-dasharray="5 2" d="M372.19,-532.05C372.19,-532.05 292.97,-514.3 277.9,-528.88 249.01,-556.8 253.16,-587.62 277.9,-619.28 278.34,-619.85 280.33,-620.69 283.45,-621.71"/><polygon fill="#000" stroke="#000" points="282.71 -625.14 293.29 -624.58 284.67 -618.42 282.71 -625.14"/></g><g id="edge13" class="edge"><title>n0000008b:port5-&gt;n00000031</title><path fill="none" stroke="#000" stroke-dasharray="5 2" d="M398,-532.05C398,-532.05 476.28,-515.34 492.3,-528.88 568.49,-593.29 550.55,-729.67 538.14,-789.41"/><polygon fill="#000" stroke="#000" points="534.69 -788.79 535.99 -799.31 541.53 -790.28 534.69 -788.79"/></g><g id="edge14" class="edge"><title>n0000008b:port6-&gt;n00000035</title><path fill="none" stroke="#000" stroke-dasharray="5 2" d="M424,-532.07C424,-532.07 290.37,-518.48 277.9,-528.88 202.27,-591.86 215.34,-725.69 225.66,-785.15"/><polygon fill="#000" stroke="#000" points="222.29 -786.14 227.54 -795.35 229.17 -784.88 222.29 -786.14"/></g><g id="edge15" class="edge"><title>n0000008b:port7-&gt;n00000039</title><path fill="none" stroke="#000" stroke-dasharray="5 2" d="M450.1,-532.08C450.1,-532.08 395.22,-528.13 383.45,-518.65 375.46,-512.21 322.64,-385.46 298.76,-327.47"/><polygon fill="#000" stroke="#000" points="301.96 -326.05 294.92 -318.14 295.49 -328.72 301.96 -326.05"/></g><g id="edge16" class="edge"><title>n0000008b:port8-&gt;n0000003d</title><path fill="none" stroke="#000" stroke-dasharray="5 2" d="M476.1,-532.08C476.1,-532.08 522.37,-522.39 526.85,-518.65 563.15,-488.33 581.38,-434.52 589.6,-401.2"/><polygon fill="#000" stroke="#000" points="593.08 -401.69 591.93 -391.16 586.26 -400.11 593.08 -401.69"/></g><g id="node35" class="node"><title>n00000095</title><path fill="green" stroke="#000" d="M301.38,-1180.11C301.38,-1180.11 485.38,-1180.11 485.38,-1180.11 491.38,-1180.11 497.38,-1186.11 497.38,-1192.11 497.38,-1192.11 497.38,-1252.11 497.38,-1252.11 497.38,-1258.11 491.38,-1264.11 485.38,-1264.11 485.38,-1264.11 301.38,-1264.11 301.38,-1264.11 295.38,-1264.11 289.38,-1258.11 289.38,-1252.11 289.38,-1252.11 289.38,-1192.11 289.38,-1192.11 289.38,-1186.11 295.38,-1180.11 301.38,-1180.11"/><text x="393.38" y="-1248.91" font-family="Times,serif" font-size="14" text-anchor="middle">0</text><polyline fill="none" stroke="#000" points="289.38 -1241.11 497.38 -1241.11"/><text x="393.38" y="-1225.91" font-family="Times,serif" font-size="14" text-anchor="middle">Intel IPU6 CSI2 2</text><text x="393.38" y="-1210.91" font-family="Times,serif" font-size="14" text-anchor="middle">/dev/v4l-subdev2</text><polyline fill="none" stroke="#000" points="289.38 -1203.11 497.38 -1203.11"/><text x="302.38" y="-1187.91" font-family="Times,serif" font-size="14" text-anchor="middle">1</text><polyline fill="none" stroke="#000" points="315.38 -1180.11 315.38 -1203.11"/><text x="328.38" y="-1187.91" font-family="Times,serif" font-size="14" text-anchor="middle">2</text><polyline fill="none" stroke="#000" points="341.38 -1180.11 341.38 -1203.11"/><text x="354.38" y="-1187.91" font-family="Times,serif" font-size="14" text-anchor="middle">3</text><polyline fill="none" stroke="#000" points="367.38 -1180.11 367.38 -1203.11"/><text x="380.38" y="-1187.91" font-family="Times,serif" font-size="14" text-anchor="middle">4</text><polyline fill="none" stroke="#000" points="393.38 -1180.11 393.38 -1203.11"/><text x="406.38" y="-1187.91" font-family="Times,serif" font-size="14" text-anchor="middle">5</text><polyline fill="none" stroke="#000" points="419.38 -1180.11 419.38 -1203.11"/><text x="432.38" y="-1187.91" font-family="Times,serif" font-size="14" text-anchor="middle">6</text><polyline fill="none" stroke="#000" points="445.38 -1180.11 445.38 -1203.11"/><text x="458.38" y="-1187.91" font-family="Times,serif" font-size="14" text-anchor="middle">7</text><polyline fill="none" stroke="#000" points="471.38 -1180.11 471.38 -1203.11"/><text x="484.38" y="-1187.91" font-family="Times,serif" font-size="14" text-anchor="middle">8</text></g><g id="edge17" class="edge"><title>n00000095:port1-&gt;n00000041</title><path fill="none" stroke="#000" stroke-dasharray="5 2" d="M289.38,-1191.11C289.38,-1191.11 258.94,-1194.22 222.89,-1197.91"/><polygon fill="#000" stroke="#000" points="222.19 -1194.46 212.6 -1198.96 222.9 -1201.42 222.19 -1194.46"/></g><g id="edge18" class="edge"><title>n00000095:port2-&gt;n00000045</title><path fill="none" stroke="#000" stroke-dasharray="5 2" d="M328.48,-1180.11C328.48,-1180.11 463.26,-1168.53 500.58,-1176.91 534.02,-1184.43 537.24,-1200.06 569.66,-1211.18 569.76,-1211.22 569.86,-1211.25 569.96,-1211.29"/><polygon fill="#000" stroke="#000" points="568.86 -1214.61 579.45 -1214.34 571 -1207.95 568.86 -1214.61"/></g><g id="edge19" class="edge"><title>n00000095:port3-&gt;n00000049</title><path fill="none" stroke="#000" stroke-dasharray="5 2" d="M354.38,-1180.11C354.38,-1180.11 356.8,-1178.46 360.49,-1175.94"/><polygon fill="#000" stroke="#000" points="362.56 -1178.77 368.86 -1170.24 358.62 -1172.98 362.56 -1178.77"/></g><g id="edge20" class="edge"><title>n00000095:port4-&gt;n0000004d</title><path fill="none" stroke="#000" stroke-dasharray="5 2" d="M380.47,-1180.09C380.47,-1180.09 293.71,-1169.63 286.18,-1176.91 257.29,-1204.84 262.63,-1234.76 286.18,-1267.31 288.16,-1270.05 297.33,-1273.96 309.38,-1278.13"/><polygon fill="#000" stroke="#000" points="308.49 -1281.53 319.09 -1281.36 310.7 -1274.88 308.49 -1281.53"/></g><g id="edge21" class="edge"><title>n00000095:port5-&gt;n00000051</title><path fill="none" stroke="#000" stroke-dasharray="5 2" d="M406.28,-1180.09C406.28,-1180.09 492.13,-1170.7 500.58,-1176.91 576.41,-1232.66 579.83,-1358.79 577.09,-1416.2"/><polygon fill="#000" stroke="#000" points="573.59 -1416.23 576.51 -1426.41 580.58 -1416.63 573.59 -1416.23"/></g><g id="edge22" class="edge"><title>n00000095:port6-&gt;n00000055</title><path fill="none" stroke="#000" stroke-dasharray="5 2" d="M432.28,-1180.11C432.28,-1180.11 292.85,-1172.29 286.18,-1176.91 211.26,-1228.86 198.3,-1348.49 196.45,-1404.12"/><polygon fill="#000" stroke="#000" points="192.94 -1404.28 196.21 -1414.36 199.94 -1404.44 192.94 -1404.28"/></g><g id="edge23" class="edge"><title>n00000095:port7-&gt;n00000059</title><path fill="none" stroke="#000" stroke-dasharray="5 2" d="M458.38,-1180.11C458.38,-1180.11 291.84,-1175.85 287.94,-1173.16 239.87,-1139.96 222.85,-1068.83 216.94,-1028.6"/><polygon fill="#000" stroke="#000" points="220.39 -1028.06 215.6 -1018.61 213.46 -1028.98 220.39 -1028.06"/></g><g id="edge24" class="edge"><title>n00000095:port8-&gt;n0000005d</title><path fill="none" stroke="#000" stroke-dasharray="5 2" d="M484.38,-1180.11C484.38,-1180.11 502.45,-1176.49 506.34,-1173.16 547.25,-1138.2 569.47,-1077.38 579.62,-1041.41"/><polygon fill="#000" stroke="#000" points="583.06 -1042.09 582.28 -1031.53 576.3 -1040.27 583.06 -1042.09"/></g><g id="node36" class="node"><title>n0000009f</title><path fill="green" stroke="#000" d="M1211.38,-200.11C1211.38,-200.11 1395.38,-200.11 1395.38,-200.11 1401.38,-200.11 1407.38,-206.11 1407.38,-212.11 1407.38,-212.11 1407.38,-272.11 1407.38,-272.11 1407.38,-278.11 1401.38,-284.11 1395.38,-284.11 1395.38,-284.11 1211.38,-284.11 1211.38,-284.11 1205.38,-284.11 1199.38,-278.11 1199.38,-272.11 1199.38,-272.11 1199.38,-212.11 1199.38,-212.11 1199.38,-206.11 1205.38,-200.11 1211.38,-200.11"/><text x="1303.38" y="-268.91" font-family="Times,serif" font-size="14" text-anchor="middle">0</text><polyline fill="none" stroke="#000" points="1199.38 -261.11 1407.38 -261.11"/><text x="1303.38" y="-245.91" font-family="Times,serif" font-size="14" text-anchor="middle">Intel IPU6 CSI2 3</text><text x="1303.38" y="-230.91" font-family="Times,serif" font-size="14" text-anchor="middle">/dev/v4l-subdev3</text><polyline fill="none" stroke="#000" points="1199.38 -223.11 1407.38 -223.11"/><text x="1212.38" y="-207.91" font-family="Times,serif" font-size="14" text-anchor="middle">1</text><polyline fill="none" stroke="#000" points="1225.38 -200.11 1225.38 -223.11"/><text x="1238.38" y="-207.91" font-family="Times,serif" font-size="14" text-anchor="middle">2</text><polyline fill="none" stroke="#000" points="1251.38 -200.11 1251.38 -223.11"/><text x="1264.38" y="-207.91" font-family="Times,serif" font-size="14" text-anchor="middle">3</text><polyline fill="none" stroke="#000" points="1277.38 -200.11 1277.38 -223.11"/><text x="1290.38" y="-207.91" font-family="Times,serif" font-size="14" text-anchor="middle">4</text><polyline fill="none" stroke="#000" points="1303.38 -200.11 1303.38 -223.11"/><text x="1316.38" y="-207.91" font-family="Times,serif" font-size="14" text-anchor="middle">5</text><polyline fill="none" stroke="#000" points="1329.38 -200.11 1329.38 -223.11"/><text x="1342.38" y="-207.91" font-family="Times,serif" font-size="14" text-anchor="middle">6</text><polyline fill="none" stroke="#000" points="1355.38 -200.11 1355.38 -223.11"/><text x="1368.38" y="-207.91" font-family="Times,serif" font-size="14" text-anchor="middle">7</text><polyline fill="none" stroke="#000" points="1381.38 -200.11 1381.38 -223.11"/><text x="1394.38" y="-207.91" font-family="Times,serif" font-size="14" text-anchor="middle">8</text></g><g id="edge25" class="edge"><title>n0000009f:port1-&gt;n00000061</title><path fill="none" stroke="#000" stroke-dasharray="5 2" d="M1199.38,-211.11C1199.38,-211.11 1168.94,-214.22 1132.89,-217.91"/><polygon fill="#000" stroke="#000" points="1132.19 -214.46 1122.6 -218.96 1132.9 -221.42 1132.19 -214.46"/></g><g id="edge26" class="edge"><title>n0000009f:port2-&gt;n00000065</title><path fill="none" stroke="#000" stroke-dasharray="5 2" d="M1238.48,-200.11C1238.48,-200.11 1373.26,-188.53 1410.58,-196.91 1444.02,-204.43 1447.24,-220.06 1479.66,-231.18 1479.76,-231.22 1479.86,-231.25 1479.96,-231.29"/><polygon fill="#000" stroke="#000" points="1478.86 -234.61 1489.45 -234.34 1481 -227.95 1478.86 -234.61"/></g><g id="edge27" class="edge"><title>n0000009f:port3-&gt;n00000069</title><path fill="none" stroke="#000" stroke-dasharray="5 2" d="M1264.38,-200.11C1264.38,-200.11 1266.8,-198.46 1270.49,-195.94"/><polygon fill="#000" stroke="#000" points="1272.56 -198.77 1278.86 -190.24 1268.62 -192.98 1272.56 -198.77"/></g><g id="edge28" class="edge"><title>n0000009f:port4-&gt;n0000006d</title><path fill="none" stroke="#000" stroke-dasharray="5 2" d="M1290.47,-200.09C1290.47,-200.09 1203.71,-189.63 1196.18,-196.91 1167.29,-224.84 1172.63,-254.76 1196.18,-287.31 1198.16,-290.05 1207.33,-293.96 1219.38,-298.13"/><polygon fill="#000" stroke="#000" points="1218.49 -301.53 1229.09 -301.36 1220.7 -294.88 1218.49 -301.53"/></g><g id="edge29" class="edge"><title>n0000009f:port5-&gt;n00000071</title><path fill="none" stroke="#000" stroke-dasharray="5 2" d="M1316.28,-200.09C1316.28,-200.09 1402.13,-190.7 1410.58,-196.91 1486.41,-252.66 1489.83,-378.79 1487.09,-436.2"/><polygon fill="#000" stroke="#000" points="1483.59 -436.23 1486.51 -446.41 1490.58 -436.63 1483.59 -436.23"/></g><g id="edge30" class="edge"><title>n0000009f:port6-&gt;n00000075</title><path fill="none" stroke="#000" stroke-dasharray="5 2" d="M1342.28,-200.11C1342.28,-200.11 1202.85,-192.29 1196.18,-196.91 1121.26,-248.86 1108.3,-368.49 1106.45,-424.12"/><polygon fill="#000" stroke="#000" points="1102.94 -424.28 1106.21 -434.36 1109.94 -424.44 1102.94 -424.28"/></g><g id="edge31" class="edge"><title>n0000009f:port7-&gt;n00000079</title><path fill="none" stroke="#000" stroke-dasharray="5 2" d="M1368.38,-200.11C1368.38,-200.11 1201.84,-195.85 1197.94,-193.16 1149.87,-159.96 1132.85,-88.83 1126.94,-48.6"/><polygon fill="#000" stroke="#000" points="1130.39 -48.06 1125.6 -38.61 1123.46 -48.98 1130.39 -48.06"/></g><g id="edge32" class="edge"><title>n0000009f:port8-&gt;n0000007d</title><path fill="none" stroke="#000" stroke-dasharray="5 2" d="M1394.38,-200.11C1394.38,-200.11 1412.45,-196.49 1416.34,-193.16 1457.25,-158.2 1479.47,-97.38 1489.62,-61.41"/><polygon fill="#000" stroke="#000" points="1493.06 -62.09 1492.28 -51.53 1486.3 -60.27 1493.06 -62.09"/></g><g id="node37" class="node"><title>n000000e9</title><path fill="green" stroke="#000" d="M398.65,-431.45C398.65,-431.45 511.65,-431.45 511.65,-431.45 517.65,-431.45 523.65,-437.45 523.65,-443.45 523.65,-443.45 523.65,-503.45 523.65,-503.45 523.65,-509.45 517.65,-515.45 511.65,-515.45 511.65,-515.45 398.65,-515.45 398.65,-515.45 392.65,-515.45 386.65,-509.45 386.65,-503.45 386.65,-503.45 386.65,-443.45 386.65,-443.45 386.65,-437.45 392.65,-431.45 398.65,-431.45"/><text x="420.65" y="-500.25" font-family="Times,serif" font-size="14" text-anchor="middle">1</text><polyline fill="none" stroke="#000" points="454.65 -492.45 454.65 -515.45"/><text x="489.15" y="-500.25" font-family="Times,serif" font-size="14" text-anchor="middle">2</text><polyline fill="none" stroke="#000" points="386.65 -492.45 523.65 -492.45"/><text x="455.15" y="-477.25" font-family="Times,serif" font-size="14" text-anchor="middle">ov2740 4-0036</text><text x="455.15" y="-462.25" font-family="Times,serif" font-size="14" text-anchor="middle">/dev/v4l-subdev4</text><polyline fill="none" stroke="#000" points="386.65 -454.45 523.65 -454.45"/><text x="455.15" y="-439.25" font-family="Times,serif" font-size="14" text-anchor="middle">0</text></g><g id="edge33" class="edge"><title>n000000e9:port0-&gt;n0000008b:port0</title><path fill="none" stroke="#000" stroke-width="2" d="M386.14,-442.55C386.14,-442.55 361.11,-493.23 383.45,-518.65 391.47,-527.78 484.31,-519.72 492.3,-528.88 508.64,-547.6 499.26,-579.87 493.12,-595.68"/><polygon fill="#000" stroke="#000" stroke-width="2" points="489.86 -594.41 489.11 -604.98 496.29 -597.19 489.86 -594.41"/></g></g></svg>